# xmcd
#
# Track frame offsets:
# 150
# 17042
# 33916
# 49039
# 72069
# 96345
# 120689
# 132350
# 147620
# 165320
#
# Disc length: 2409 seconds
#
#
# Revision: 0
# Processed by: cddbd v1.4PL0 Copyright (c) Steve Scherf et al.
# Submitted via: FreeRIP 2.52 
#
DISCID=8609670a
DTITLE=Mickey Harte - Sometimes Right, Sometimes Wrong
DYEAR=2003
DGENRE=Pop
TTITLE0=Here at the right time
TTITLE1=Sometimes right sometimes wrong
TTITLE2=Never wanna' let u down
TTITLE3=There must be love
TTITLE4=The island
TTITLE5=I need you
TTITLE6=Teenage kicks
TTITLE7=Total love
TTITLE8=A chance for you and me
TTITLE9=We've got the world
EXTD=
EXTT0=
EXTT1=
EXTT2=
EXTT3=
EXTT4=
EXTT5=
EXTT6=
EXTT7=
EXTT8=
EXTT9=
PLAYORDER=
